<?xml version="1.0" standalone="no"?>
<!DOCTYPE svg PUBLIC "-//W3C//DTD SVG 20010904//EN"
 "http://www.w3.org/TR/2001/REC-SVG-20010904/DTD/svg10.dtd">
<svg version="1.0" xmlns="http://www.w3.org/2000/svg"
 width="495.000000pt" height="504.000000pt" viewBox="0 0 495.000000 504.000000"
 preserveAspectRatio="xMidYMid meet">

<g transform="translate(0.000000,504.000000) scale(0.100000,-0.100000)"
fill="#000000" stroke="none">
<path d="M2170 4885 c-654 -91 -1193 -397 -1591 -905 -42 -53 -179 -256 -179
-265 0 -2 -16 -31 -35 -64 -117 -200 -235 -573 -265 -836 -16 -142 -13 -510 6
-634 62 -420 242 -838 497 -1150 201 -246 483 -481 727 -605 41 -22 80 -42 85
-46 20 -15 232 -98 327 -129 290 -92 642 -129 953 -101 114 11 121 12 320 56
483 107 944 385 1259 759 132 156 218 283 309 455 93 176 179 416 223 625 41
192 54 475 33 710 -47 538 -296 1066 -686 1452 -200 198 -414 348 -666 468
-176 84 -314 128 -592 189 -165 37 -535 47 -725 21z m665 -49 c229 -37 452
-108 660 -209 108 -53 232 -124 241 -138 9 -15 15 -2599 6 -2599 -5 0 -138
133 -296 295 l-288 295 -3 252 c-1 139 -3 493 -4 786 -1 466 -3 532 -16 532
-13 0 -15 -91 -15 -760 0 -418 -4 -760 -8 -760 -4 0 -157 152 -339 338 -858
872 -1011 1027 -1014 1022 -2 -3 -2 -161 1 -352 l5 -346 430 -439 c237 -241
539 -548 673 -683 l242 -245 -1 -200 c-1 -110 -4 -222 -7 -249 l-4 -48 -152
149 c-83 82 -472 466 -864 853 -393 388 -771 760 -840 826 l-127 122 -3 -1329
c-1 -731 -6 -1329 -11 -1329 -42 0 -359 300 -480 454 -208 267 -373 609 -436
906 -14 69 -30 141 -35 160 -37 149 -38 547 -1 755 108 600 382 1070 851 1456
313 258 724 431 1170 494 138 19 522 14 665 -9z m1064 -458 c53 -40 155 -131
226 -203 352 -351 568 -770 656 -1272 30 -173 34 -558 6 -731 -99 -623 -423
-1162 -920 -1531 -651 -483 -1498 -594 -2272 -296 -88 33 -322 154 -395 203
l-55 37 4 1300 c1 715 4 1301 4 1302 1 0 136 -131 301 -293 l298 -294 -3 -862
c-4 -858 -4 -863 16 -863 20 0 20 5 16 844 -3 604 -1 842 7 840 11 -4 119
-110 975 -958 202 -200 369 -362 371 -360 2 2 6 138 9 301 l6 298 -62 63
c-162 164 -1094 1115 -1189 1213 l-108 110 0 282 c0 155 4 282 8 282 5 0 123
-116 263 -258 140 -142 511 -519 825 -837 314 -319 644 -654 732 -745 l161
-165 1 1333 c0 1022 3 1332 12 1332 6 0 55 -32 107 -72z"/>
</g>
</svg>
